<mxfile host="app.diagrams.net" modified="2024-07-21T14:03:00.160Z" agent="Mozilla/5.0 (Windows NT 10.0; Win64; x64) AppleWebKit/537.36 (KHTML, like Gecko) Chrome/126.0.0.0 Safari/537.36" version="24.7.1" etag="XSfAtwEaAu0Jdy3Dbs-T" type="github">
  <diagram name="PÃ¡gina-1" id="r5ILjwtplTH-_hhAnEAK">
    <mxGraphModel>
      <root>
        <mxCell id="0" />
        <mxCell id="1" parent="0" />
      </root>
    </mxGraphModel>
  </diagram>
</mxfile>
